<svg width="512" height="512" viewBox="0 0 512 512" fill="none" xmlns="http://www.w3.org/2000/svg">
<path d="M25.1087 267.727H37.4347L50.4531 299.489H51.0071L64.0256 267.727H76.3516V315H66.657V284.231H66.2646L54.0309 314.769H47.4293L35.1957 284.116H34.8033V315H25.1087V267.727ZM87.8362 315V267.727H119.69V275.968H97.8309V287.232H118.051V295.472H97.8309V306.76H119.782V315H87.8362ZM147.644 315H130.886V267.727H147.782C152.537 267.727 156.631 268.674 160.062 270.566C163.494 272.444 166.133 275.144 167.979 278.668C169.841 282.192 170.772 286.409 170.772 291.317C170.772 296.242 169.841 300.473 167.979 304.013C166.133 307.552 163.478 310.268 160.016 312.161C156.569 314.054 152.445 315 147.644 315ZM140.881 306.436H147.228C150.183 306.436 152.668 305.913 154.684 304.867C156.715 303.805 158.239 302.166 159.254 299.95C160.285 297.719 160.801 294.841 160.801 291.317C160.801 287.824 160.285 284.97 159.254 282.754C158.239 280.538 156.723 278.907 154.707 277.86C152.691 276.814 150.206 276.291 147.251 276.291H140.881V306.436ZM191.421 267.727V315H181.426V267.727H191.421ZM211.042 315H200.332L216.651 267.727H229.531L245.827 315H235.117L223.276 278.53H222.906L211.042 315ZM210.373 296.419H235.671V304.221H210.373V296.419ZM247.19 275.968V267.727H286.015V275.968H271.542V315H261.663V275.968H247.19ZM295.658 315V267.727H327.512V275.968H305.653V287.232H325.873V295.472H305.653V306.76H327.604V315H295.658ZM356.551 298.565H365.045L369.316 304.059L373.517 308.952L381.434 318.878H372.108L366.661 312.184L363.868 308.214L356.551 298.565ZM382.149 291.364C382.149 296.519 381.172 300.904 379.218 304.521C377.279 308.137 374.632 310.899 371.278 312.807C367.938 314.7 364.184 315.646 360.013 315.646C355.812 315.646 352.042 314.692 348.703 312.784C345.364 310.876 342.725 308.114 340.786 304.498C338.847 300.881 337.877 296.503 337.877 291.364C337.877 286.209 338.847 281.823 340.786 278.207C342.725 274.59 345.364 271.836 348.703 269.943C352.042 268.035 355.812 267.081 360.013 267.081C364.184 267.081 367.938 268.035 371.278 269.943C374.632 271.836 377.279 274.59 379.218 278.207C381.172 281.823 382.149 286.209 382.149 291.364ZM372.016 291.364C372.016 288.024 371.516 285.208 370.516 282.915C369.531 280.623 368.138 278.884 366.338 277.699C364.537 276.514 362.429 275.922 360.013 275.922C357.597 275.922 355.489 276.514 353.689 277.699C351.888 278.884 350.488 280.623 349.488 282.915C348.503 285.208 348.01 288.024 348.01 291.364C348.01 294.703 348.503 297.519 349.488 299.812C350.488 302.105 351.888 303.844 353.689 305.028C355.489 306.213 357.597 306.806 360.013 306.806C362.429 306.806 364.537 306.213 366.338 305.028C368.138 303.844 369.531 302.105 370.516 299.812C371.516 297.519 372.016 294.703 372.016 291.364ZM422.002 267.727H431.997V298.427C431.997 301.874 431.174 304.89 429.527 307.475C427.896 310.06 425.611 312.076 422.672 313.523C419.732 314.954 416.309 315.669 412.4 315.669C408.476 315.669 405.044 314.954 402.105 313.523C399.166 312.076 396.881 310.06 395.25 307.475C393.619 304.89 392.803 301.874 392.803 298.427V267.727H402.798V297.573C402.798 299.373 403.19 300.974 403.975 302.374C404.775 303.774 405.898 304.875 407.345 305.675C408.791 306.475 410.476 306.875 412.4 306.875C414.339 306.875 416.024 306.475 417.455 305.675C418.901 304.875 420.017 303.774 420.802 302.374C421.602 300.974 422.002 299.373 422.002 297.573V267.727ZM443.47 315V267.727H475.324V275.968H453.465V287.232H473.685V295.472H453.465V306.76H475.416V315H443.47ZM41.5455 392H25.0455V345.455H41.6818C46.3636 345.455 50.3939 346.386 53.7727 348.25C57.1515 350.098 59.75 352.758 61.5682 356.227C63.4015 359.697 64.3182 363.848 64.3182 368.682C64.3182 373.53 63.4015 377.697 61.5682 381.182C59.75 384.667 57.1364 387.341 53.7273 389.205C50.3333 391.068 46.2727 392 41.5455 392ZM34.8864 383.568H41.1364C44.0455 383.568 46.4924 383.053 48.4773 382.023C50.4773 380.977 51.9773 379.364 52.9773 377.182C53.9924 374.985 54.5 372.152 54.5 368.682C54.5 365.242 53.9924 362.432 52.9773 360.25C51.9773 358.068 50.4848 356.462 48.5 355.432C46.5152 354.402 44.0682 353.886 41.1591 353.886H34.8864V383.568ZM77.688 392V345.455H109.052V353.568H87.5289V364.659H107.438V372.773H87.5289V383.886H109.143V392H77.688ZM164.74 345.455H176.877L189.695 376.727H190.24L203.059 345.455H215.195V392H205.65V361.705H205.263L193.218 391.773H186.718L174.672 361.591H174.286V392H164.74V345.455ZM272.156 368.727C272.156 373.803 271.194 378.121 269.269 381.682C267.36 385.242 264.754 387.962 261.451 389.841C258.163 391.705 254.466 392.636 250.36 392.636C246.224 392.636 242.512 391.697 239.224 389.818C235.936 387.939 233.337 385.22 231.428 381.659C229.519 378.098 228.565 373.788 228.565 368.727C228.565 363.652 229.519 359.333 231.428 355.773C233.337 352.212 235.936 349.5 239.224 347.636C242.512 345.758 246.224 344.818 250.36 344.818C254.466 344.818 258.163 345.758 261.451 347.636C264.754 349.5 267.36 352.212 269.269 355.773C271.194 359.333 272.156 363.652 272.156 368.727ZM262.178 368.727C262.178 365.439 261.686 362.667 260.701 360.409C259.731 358.152 258.36 356.439 256.587 355.273C254.815 354.106 252.739 353.523 250.36 353.523C247.981 353.523 245.906 354.106 244.133 355.273C242.36 356.439 240.981 358.152 239.997 360.409C239.027 362.667 238.542 365.439 238.542 368.727C238.542 372.015 239.027 374.788 239.997 377.045C240.981 379.303 242.36 381.015 244.133 382.182C245.906 383.348 247.981 383.932 250.36 383.932C252.739 383.932 254.815 383.348 256.587 382.182C258.36 381.015 259.731 379.303 260.701 377.045C261.686 374.788 262.178 372.015 262.178 368.727ZM314.275 345.455H324.116V375.682C324.116 379.076 323.306 382.045 321.685 384.591C320.078 387.136 317.828 389.121 314.935 390.545C312.041 391.955 308.669 392.659 304.821 392.659C300.957 392.659 297.578 391.955 294.685 390.545C291.791 389.121 289.541 387.136 287.935 384.591C286.328 382.045 285.525 379.076 285.525 375.682V345.455H295.366V374.841C295.366 376.614 295.753 378.189 296.525 379.568C297.313 380.947 298.419 382.03 299.844 382.818C301.268 383.606 302.927 384 304.821 384C306.73 384 308.389 383.606 309.798 382.818C311.222 382.03 312.321 380.947 313.094 379.568C313.882 378.189 314.275 376.614 314.275 374.841V345.455ZM338.293 392V345.455H348.134V383.886H368.088V392H338.293ZM421.646 368.727C421.646 373.803 420.684 378.121 418.759 381.682C416.85 385.242 414.244 387.962 410.941 389.841C407.653 391.705 403.956 392.636 399.85 392.636C395.714 392.636 392.002 391.697 388.714 389.818C385.426 387.939 382.828 385.22 380.918 381.659C379.009 378.098 378.055 373.788 378.055 368.727C378.055 363.652 379.009 359.333 380.918 355.773C382.828 352.212 385.426 349.5 388.714 347.636C392.002 345.758 395.714 344.818 399.85 344.818C403.956 344.818 407.653 345.758 410.941 347.636C414.244 349.5 416.85 352.212 418.759 355.773C420.684 359.333 421.646 363.652 421.646 368.727ZM411.668 368.727C411.668 365.439 411.176 362.667 410.191 360.409C409.221 358.152 407.85 356.439 406.078 355.273C404.305 354.106 402.229 353.523 399.85 353.523C397.471 353.523 395.396 354.106 393.623 355.273C391.85 356.439 390.471 358.152 389.487 360.409C388.517 362.667 388.032 365.439 388.032 368.727C388.032 372.015 388.517 374.788 389.487 377.045C390.471 379.303 391.85 381.015 393.623 382.182C395.396 383.348 397.471 383.932 399.85 383.932C402.229 383.932 404.305 383.348 406.078 382.182C407.85 381.015 409.221 379.303 410.191 377.045C411.176 374.788 411.668 372.015 411.668 368.727ZM473.947 345.455V392H465.447L445.197 362.705H444.856V392H435.015V345.455H443.652L463.743 374.727H464.152V345.455H473.947Z" fill="black"/>
<path d="M476 252H22V23H199.5C239.397 23.1241 251.105 33.8718 251 74C251.086 33.7668 258 22.9999 300.5 23C343 23.0001 476 23 476 23V252Z" stroke="black" stroke-width="5"/>
<path d="M251 74V251.5" stroke="black" stroke-width="5"/>
<path d="M476 405H22V463H202.5C251 463 251 494 251 494C251 494 251 463 294 463H476V405Z" stroke="black" stroke-width="5"/>
<path d="M40 76.5H214.5M40 113.5H214.5M40 154H214.5M40 193H214.5M300 76.5H451.5M451.5 113.5H300M300 154H451.5M451.5 193H300" stroke="black" stroke-width="2"/>
<path d="M45.5 431.5H217.5M306 431.5H455.5" stroke="black" stroke-width="2"/>
<path d="M250.988 488L251.5 406" stroke="black" stroke-width="5"/>
</svg>
